<svg width="495" height="204" viewBox="0 0 495 204" fill="none" xmlns="http://www.w3.org/2000/svg">
<path d="M149.448 8.83134V1.22566H163.034V34.9713H149.448V27.2918C143.688 18.6277 135.811 14.2956 125.818 14.2956C119.714 14.2956 115.037 15.5263 111.788 17.9877C108.539 20.4491 106.915 23.9935 106.915 28.6209C106.915 33.0514 108.441 36.4235 111.493 38.7372C114.594 41.0509 119.32 43.02 125.671 44.6445L138.74 48.1151C147.06 50.3303 153.435 53.2594 157.865 56.9022C162.345 60.5451 165.25 64.4095 166.579 68.4954C167.957 72.5813 168.646 77.1349 168.646 82.1561C168.646 92.2478 165.496 100.247 159.195 106.155C152.893 112.062 144.451 115.016 133.867 115.016C123.775 115.016 114.594 111.324 106.324 103.939V113.17H92.4418V72.6305H106.324V82.4515C112.97 94.6599 121.634 100.764 132.316 100.764C138.568 100.764 143.417 99.1643 146.863 95.9645C150.309 92.7154 152.032 88.1619 152.032 82.3038C152.032 74.3289 146.42 68.7907 135.196 65.6894L121.314 61.7758C111.321 58.9206 103.936 55.0562 99.1614 50.1827C94.3863 45.3091 91.9987 38.8849 91.9987 30.91C91.9987 21.1137 94.8785 13.5326 100.638 8.16677C106.447 2.75172 114.447 0.0441895 124.637 0.0441895C133.498 0.0441895 141.768 2.97324 149.448 8.83134Z" fill="white"/>
<path d="M261.096 74.4766C261.096 82.0084 259.299 88.9003 255.706 95.1522C252.112 101.404 247.214 106.352 241.011 109.994C234.808 113.637 227.941 115.459 220.409 115.459C212.631 115.459 205.616 113.637 199.364 109.994C193.113 106.352 188.239 101.404 184.744 95.1522C181.298 88.9003 179.575 82.0084 179.575 74.4766C179.575 66.6001 181.298 59.5605 184.744 53.3578C188.239 47.1552 193.088 42.3062 199.291 38.811C205.493 35.2666 212.533 33.4944 220.409 33.4944C228.04 33.4944 234.956 35.3651 241.159 39.1064C247.362 42.7985 252.235 47.7705 255.779 54.0224C259.324 60.2743 261.096 67.0924 261.096 74.4766ZM220.409 100.616C224.938 100.616 229.098 99.435 232.889 97.0721C236.679 94.7092 239.633 91.534 241.75 87.5465C243.866 83.5591 244.925 79.2024 244.925 74.4766C244.925 69.8491 243.866 65.5417 241.75 61.5543C239.633 57.5668 236.679 54.367 232.889 51.9549C229.098 49.4935 224.889 48.2628 220.262 48.2628C215.733 48.2628 211.573 49.4689 207.782 51.881C203.992 54.2439 201.014 57.4438 198.848 61.4804C196.682 65.5171 195.599 69.8491 195.599 74.4766C195.599 79.104 196.682 83.436 198.848 87.4727C201.014 91.5094 204.016 94.7092 207.856 97.0721C211.696 99.435 215.88 100.616 220.409 100.616Z" fill="white"/>
<path d="M307.395 101.207C314.237 101.207 321.646 97.8844 329.621 91.2386V49.2227H315.887V35.562H344.906V99.5827H358.198V113.17H329.621V104.235C320.662 111.077 312.145 114.499 304.072 114.499C296.786 114.499 291.396 112.333 287.901 108.001C284.455 103.669 282.732 96.4814 282.732 86.4389V49.2227H271.877V35.562H298.017V89.6141C298.017 93.6015 298.731 96.5306 300.158 98.4012C301.635 100.272 304.047 101.207 307.395 101.207Z" fill="white"/>
<path d="M395.562 82.0084V99.5827H412.471V113.17H364.844V99.5827H380.424V49.2227H364.844V35.562H392.534V53.1363C395.635 46.1952 399.475 41.3709 404.053 38.6634C408.681 35.9066 415.277 34.5282 423.843 34.5282H427.314V49.9611H423.991C415.72 49.9611 409.567 51.0441 405.53 53.2102C401.494 55.3762 398.811 58.6498 397.482 63.0311C396.202 67.4124 395.562 73.7381 395.562 82.0084Z" fill="white"/>
<path d="M476.787 38.8849V35.562H490.079V61.3327H476.787V56.6069C472.357 50.2565 466.302 47.0813 458.622 47.0813C454.586 47.0813 451.287 47.9674 448.728 49.7396C446.168 51.5118 444.888 53.8009 444.888 56.6069C444.888 59.1175 445.848 61.0866 447.768 62.5142C449.737 63.9418 454.118 65.1971 460.911 66.2801L471.175 68.2739C486.485 71.0798 494.14 78.5871 494.14 90.7956C494.14 97.9336 491.359 103.669 485.796 108.001C480.283 112.333 472.948 114.499 463.791 114.499C460.148 114.499 456.555 113.982 453.01 112.948C449.515 111.865 446.586 110.536 444.223 108.961V113.17H430.636V86.5866H444.223V89.2449C444.962 92.9862 447.029 95.9891 450.426 98.2536C453.872 100.518 457.859 101.65 462.388 101.65C467.36 101.65 471.274 100.789 474.129 99.0658C476.984 97.2936 478.412 94.6845 478.412 91.2386C478.412 88.728 477.28 86.8573 475.015 85.6266C472.751 84.3467 468.197 83.0422 461.355 81.713L453.453 80.0147C445.626 78.4394 439.891 75.7319 436.248 71.8921C432.606 68.0523 430.784 63.1542 430.784 57.1976C430.784 52.3733 432.113 48.2628 434.772 44.8661C437.479 41.4201 440.925 38.8357 445.109 37.1127C449.294 35.3897 453.601 34.5282 458.032 34.5282C465.465 34.5282 471.717 35.9804 476.787 38.8849Z" fill="white"/>
<path d="M93.1802 102.364V90.1063H107.358V125.772H92.8848C89.242 118.634 84.2453 113.071 77.895 109.084C71.5446 105.096 64.5789 103.102 56.9978 103.102C49.6629 103.102 43.1156 105.047 37.3559 108.936C31.5963 112.776 27.0919 117.945 23.8429 124.443C20.6431 130.891 19.0432 137.833 19.0432 145.266C19.0432 152.945 20.7169 160.034 24.0644 166.532C27.4611 173.03 32.1132 178.224 38.0205 182.113C43.9278 186.002 50.4997 187.946 57.7362 187.946C66.6464 187.946 74.5229 185.239 81.3655 179.824C88.2082 174.36 93.2048 166.631 96.3554 156.638L110.533 164.169C106.693 176.575 99.8998 186.199 90.1527 193.042C80.4548 199.835 69.0586 203.232 55.964 203.232C45.1831 203.232 35.6083 200.672 27.2396 195.552C18.8709 190.383 12.3482 183.467 7.67158 174.803C3.04417 166.089 0.730469 156.539 0.730469 146.152C0.730469 134.879 3.0934 124.836 7.81926 116.025C12.5944 107.213 19.1663 100.395 27.535 95.5706C35.9037 90.697 45.4785 88.2602 56.2594 88.2602C63.4959 88.2602 70.1662 89.4663 76.2705 91.8785C82.3747 94.2906 88.0113 97.7858 93.1802 102.364Z" fill="white"/>
<path d="M205.124 162.693C205.124 170.224 203.327 177.116 199.734 183.368C196.14 189.62 191.242 194.568 185.039 198.21C178.836 201.853 171.969 203.675 164.437 203.675C156.659 203.675 149.644 201.853 143.392 198.21C137.141 194.568 132.267 189.62 128.772 183.368C125.326 177.116 123.603 170.224 123.603 162.693C123.603 154.816 125.326 147.777 128.772 141.574C132.267 135.371 137.116 130.522 143.319 127.027C149.521 123.483 156.561 121.71 164.437 121.71C172.068 121.71 178.984 123.581 185.187 127.322C191.39 131.015 196.263 135.987 199.807 142.238C203.352 148.49 205.124 155.308 205.124 162.693ZM164.437 188.833C168.966 188.833 173.126 187.651 176.917 185.288C180.707 182.925 183.661 179.75 185.778 175.763C187.894 171.775 188.953 167.418 188.953 162.693C188.953 158.065 187.894 153.758 185.778 149.77C183.661 145.783 180.707 142.583 176.917 140.171C173.126 137.71 168.917 136.479 164.29 136.479C159.761 136.479 155.601 137.685 151.81 140.097C148.02 142.46 145.042 145.66 142.876 149.696C140.71 153.733 139.627 158.065 139.627 162.693C139.627 167.32 140.71 171.652 142.876 175.689C145.042 179.725 148.045 182.925 151.884 185.288C155.724 187.651 159.908 188.833 164.437 188.833Z" fill="white"/>
<path d="M311.604 187.799V201.386H282.436V190.014C274.658 198.481 265.379 202.715 254.598 202.715C247.115 202.715 240.494 200.967 234.735 197.472C229.024 193.928 224.569 189.128 221.369 183.073C218.219 177.018 216.643 170.323 216.643 162.988C216.643 155.505 218.317 148.613 221.665 142.312C225.061 136.011 229.738 131.015 235.695 127.322C241.651 123.581 248.1 121.71 255.041 121.71C260.062 121.71 264.813 122.72 269.292 124.738C273.821 126.756 278.203 129.932 282.436 134.264V103.545L282.732 86.4389L297.574 90.1063V187.799H311.604ZM257.478 189.128C262.204 189.128 266.462 187.873 270.252 185.362C274.043 182.851 277.021 179.504 279.187 175.32C281.353 171.135 282.436 166.655 282.436 161.88C282.436 157.056 281.353 152.65 279.187 148.663C277.021 144.675 274.018 141.525 270.179 139.211C266.339 136.897 262.007 135.74 257.182 135.74C252.506 135.74 248.321 136.996 244.629 139.506C240.987 141.968 238.107 145.266 235.99 149.401C233.873 153.487 232.815 157.868 232.815 162.545C232.815 167.566 233.898 172.095 236.064 176.132C238.23 180.168 241.183 183.344 244.925 185.657C248.666 187.971 252.85 189.128 257.478 189.128Z" fill="white"/>
<path d="M401.247 166.459H336.193C337.128 173.892 340.008 179.775 344.832 184.107C349.657 188.389 355.564 190.531 362.554 190.531C367.674 190.531 372.425 189.473 376.806 187.356C381.187 185.239 384.855 181.99 387.808 177.609L401.247 183.664C397.014 190.26 391.451 195.257 384.559 198.653C377.717 202.001 370.259 203.675 362.185 203.675C353.817 203.675 346.383 201.927 339.885 198.432C333.387 194.937 328.317 190.063 324.674 183.811C321.08 177.559 319.283 170.52 319.283 162.693C319.283 154.915 321.055 147.9 324.6 141.648C328.193 135.396 333.092 130.522 339.294 127.027C345.497 123.483 352.34 121.71 359.822 121.71C367.994 121.71 375.108 123.532 381.163 127.175C387.267 130.768 392.066 135.937 395.562 142.682C399.057 149.376 400.952 157.302 401.247 166.459ZM360.118 134.411C354.358 134.411 349.312 136.356 344.98 140.245C340.648 144.085 337.867 149.18 336.636 155.53H385.224C383.796 149.18 380.769 144.085 376.141 140.245C371.514 136.356 366.173 134.411 360.118 134.411Z" fill="white"/>
</svg>
