<svg width="495" height="204" viewBox="0 0 495 204" fill="none" xmlns="http://www.w3.org/2000/svg">
<path d="M149.448 9.01137V1.40568H163.034V35.1513H149.448V27.4718C143.688 18.8077 135.811 14.4756 125.818 14.4756C119.714 14.4756 115.037 15.7063 111.788 18.1677C108.539 20.6291 106.915 24.1735 106.915 28.8009C106.915 33.2314 108.441 36.6035 111.493 38.9172C114.594 41.2309 119.32 43.2 125.671 44.8246L138.74 48.2951C147.06 50.5104 153.435 53.4394 157.865 57.0823C162.345 60.7251 165.25 64.5895 166.579 68.6754C167.957 72.7613 168.646 77.3149 168.646 82.3361C168.646 92.4278 165.496 100.427 159.195 106.335C152.893 112.242 144.451 115.196 133.867 115.196C123.775 115.196 114.594 111.504 106.324 104.119V113.35H92.4418V72.8105H106.324V82.6315C112.97 94.84 121.634 100.944 132.316 100.944C138.568 100.944 143.417 99.3443 146.863 96.1445C150.309 92.8955 152.032 88.3419 152.032 82.4838C152.032 74.5089 146.42 68.9708 135.196 65.8694L121.314 61.9558C111.321 59.1006 103.936 55.2362 99.1614 50.3627C94.3863 45.4891 91.9987 39.0649 91.9987 31.09C91.9987 21.2937 94.8785 13.7126 100.638 8.34679C106.447 2.93174 114.447 0.224213 124.637 0.224213C133.498 0.224213 141.768 3.15326 149.448 9.01137Z" fill="#221D23"/>
<path d="M261.096 74.6566C261.096 82.1884 259.299 89.0803 255.706 95.3322C252.112 101.584 247.214 106.532 241.011 110.174C234.808 113.817 227.941 115.639 220.409 115.639C212.631 115.639 205.616 113.817 199.364 110.174C193.113 106.532 188.239 101.584 184.744 95.3322C181.298 89.0803 179.575 82.1884 179.575 74.6566C179.575 66.7801 181.298 59.7406 184.744 53.5379C188.239 47.3352 193.088 42.4862 199.291 38.9911C205.493 35.4467 212.533 33.6745 220.409 33.6745C228.04 33.6745 234.956 35.5451 241.159 39.2864C247.362 42.9785 252.235 47.9505 255.779 54.2024C259.324 60.4544 261.096 67.2724 261.096 74.6566ZM220.409 100.797C224.938 100.797 229.098 99.6151 232.889 97.2521C236.679 94.8892 239.633 91.714 241.75 87.7265C243.866 83.7391 244.925 79.3824 244.925 74.6566C244.925 70.0292 243.866 65.7217 241.75 61.7343C239.633 57.7468 236.679 54.547 232.889 52.1349C229.098 49.6735 224.889 48.4428 220.262 48.4428C215.733 48.4428 211.573 49.6489 207.782 52.061C203.992 54.424 201.014 57.6238 198.848 61.6605C196.682 65.6971 195.599 70.0292 195.599 74.6566C195.599 79.284 196.682 83.616 198.848 87.6527C201.014 91.6894 204.016 94.8892 207.856 97.2521C211.696 99.6151 215.88 100.797 220.409 100.797Z" fill="#221D23"/>
<path d="M307.395 101.387C314.237 101.387 321.646 98.0644 329.621 91.4186V49.4027H315.887V35.742H344.906V99.7627H358.198V113.35H329.621V104.415C320.662 111.257 312.145 114.679 304.072 114.679C296.786 114.679 291.396 112.513 287.901 108.181C284.455 103.849 282.732 96.6614 282.732 86.6189V49.4027H271.877V35.742H298.017V89.7941C298.017 93.7816 298.731 96.7106 300.158 98.5813C301.635 100.452 304.047 101.387 307.395 101.387Z" fill="#221D23"/>
<path d="M395.562 82.1884V99.7627H412.471V113.35H364.844V99.7627H380.424V49.4027H364.844V35.742H392.534V53.3163C395.635 46.3752 399.475 41.5509 404.053 38.8434C408.681 36.0866 415.277 34.7083 423.843 34.7083H427.314V50.1412H423.991C415.72 50.1412 409.567 51.2242 405.53 53.3902C401.494 55.5562 398.811 58.8299 397.482 63.2111C396.202 67.5924 395.562 73.9182 395.562 82.1884Z" fill="#221D23"/>
<path d="M476.787 39.0649V35.742H490.079V61.5128H476.787V56.7869C472.357 50.4365 466.302 47.2613 458.622 47.2613C454.586 47.2613 451.287 48.1474 448.728 49.9196C446.168 51.6918 444.888 53.9809 444.888 56.7869C444.888 59.2975 445.848 61.2666 447.768 62.6942C449.737 64.1218 454.118 65.3771 460.911 66.4602L471.175 68.4539C486.485 71.2599 494.14 78.7671 494.14 90.9756C494.14 98.1136 491.359 103.849 485.796 108.181C480.283 112.513 472.948 114.679 463.791 114.679C460.148 114.679 456.555 114.162 453.01 113.128C449.515 112.045 446.586 110.716 444.223 109.141V113.35H430.636V86.7666H444.223V89.4249C444.962 93.1662 447.029 96.1691 450.426 98.4336C453.872 100.698 457.859 101.83 462.388 101.83C467.36 101.83 471.274 100.969 474.129 99.2458C476.984 97.4736 478.412 94.8646 478.412 91.4186C478.412 88.908 477.28 87.0374 475.015 85.8067C472.751 84.5267 468.197 83.2222 461.355 81.8931L453.453 80.1947C445.626 78.6194 439.891 75.9119 436.248 72.0721C432.606 68.2324 430.784 63.3342 430.784 57.3776C430.784 52.5533 432.113 48.4428 434.772 45.0461C437.479 41.6001 440.925 39.0157 445.109 37.2927C449.294 35.5697 453.601 34.7083 458.032 34.7083C465.465 34.7083 471.717 36.1605 476.787 39.0649Z" fill="#221D23"/>
<path d="M93.1802 102.544V90.2863H107.358V125.952H92.8848C89.242 118.814 84.2453 113.251 77.895 109.264C71.5446 105.276 64.5789 103.282 56.9978 103.282C49.6629 103.282 43.1156 105.227 37.3559 109.116C31.5963 112.956 27.0919 118.125 23.8429 124.623C20.6431 131.071 19.0432 138.013 19.0432 145.446C19.0432 153.126 20.7169 160.214 24.0644 166.712C27.4611 173.21 32.1132 178.404 38.0205 182.293C43.9278 186.182 50.4997 188.126 57.7362 188.126C66.6464 188.126 74.5229 185.419 81.3655 180.004C88.2082 174.54 93.2048 166.811 96.3554 156.818L110.533 164.349C106.693 176.755 99.8998 186.379 90.1527 193.222C80.4548 200.015 69.0586 203.412 55.964 203.412C45.1831 203.412 35.6083 200.852 27.2396 195.732C18.8709 190.563 12.3482 183.647 7.67158 174.983C3.04417 166.269 0.730469 156.719 0.730469 146.332C0.730469 135.059 3.0934 125.016 7.81927 116.205C12.5944 107.393 19.1663 100.575 27.535 95.7506C35.9037 90.877 45.4785 88.4403 56.2594 88.4403C63.4959 88.4403 70.1662 89.6463 76.2705 92.0585C82.3747 94.4707 88.0113 97.9658 93.1802 102.544Z" fill="#221D23"/>
<path d="M205.124 162.873C205.124 170.404 203.327 177.296 199.734 183.548C196.14 189.8 191.242 194.748 185.039 198.39C178.836 202.033 171.969 203.855 164.437 203.855C156.659 203.855 149.644 202.033 143.392 198.39C137.141 194.748 132.267 189.8 128.772 183.548C125.326 177.296 123.603 170.404 123.603 162.873C123.603 154.996 125.326 147.957 128.772 141.754C132.267 135.551 137.116 130.702 143.319 127.207C149.521 123.663 156.561 121.891 164.437 121.891C172.068 121.891 178.984 123.761 185.187 127.502C191.39 131.195 196.263 136.167 199.807 142.418C203.352 148.67 205.124 155.488 205.124 162.873ZM164.437 189.013C168.966 189.013 173.126 187.831 176.917 185.468C180.707 183.105 183.661 179.93 185.778 175.943C187.894 171.955 188.953 167.598 188.953 162.873C188.953 158.245 187.894 153.938 185.778 149.95C183.661 145.963 180.707 142.763 176.917 140.351C173.126 137.89 168.917 136.659 164.29 136.659C159.761 136.659 155.601 137.865 151.81 140.277C148.02 142.64 145.042 145.84 142.876 149.876C140.71 153.913 139.627 158.245 139.627 162.873C139.627 167.5 140.71 171.832 142.876 175.869C145.042 179.905 148.045 183.105 151.884 185.468C155.724 187.831 159.908 189.013 164.437 189.013Z" fill="#221D23"/>
<path d="M311.604 187.979V201.566H282.436V190.194C274.658 198.661 265.379 202.895 254.598 202.895C247.115 202.895 240.494 201.147 234.735 197.652C229.024 194.108 224.569 189.308 221.369 183.253C218.219 177.198 216.643 170.503 216.643 163.168C216.643 155.685 218.317 148.793 221.665 142.492C225.061 136.191 229.738 131.195 235.695 127.502C241.651 123.761 248.1 121.891 255.041 121.891C260.062 121.891 264.813 122.9 269.292 124.918C273.821 126.936 278.203 130.112 282.436 134.444V103.725L282.732 86.6189L297.574 90.2863V187.979H311.604ZM257.478 189.308C262.204 189.308 266.462 188.053 270.252 185.542C274.043 183.031 277.021 179.684 279.187 175.5C281.353 171.315 282.436 166.835 282.436 162.06C282.436 157.236 281.353 152.83 279.187 148.843C277.021 144.855 274.018 141.705 270.179 139.391C266.339 137.077 262.007 135.92 257.182 135.92C252.506 135.92 248.321 137.176 244.629 139.686C240.987 142.148 238.107 145.446 235.99 149.581C233.873 153.667 232.815 158.048 232.815 162.725C232.815 167.746 233.898 172.275 236.064 176.312C238.23 180.348 241.183 183.524 244.925 185.837C248.666 188.151 252.85 189.308 257.478 189.308Z" fill="#221D23"/>
<path d="M401.247 166.639H336.193C337.128 174.072 340.008 179.955 344.832 184.287C349.657 188.57 355.564 190.711 362.554 190.711C367.674 190.711 372.425 189.653 376.806 187.536C381.187 185.419 384.855 182.17 387.808 177.789L401.247 183.844C397.014 190.44 391.451 195.437 384.559 198.833C377.717 202.181 370.259 203.855 362.185 203.855C353.817 203.855 346.383 202.107 339.885 198.612C333.387 195.117 328.317 190.243 324.674 183.991C321.08 177.739 319.283 170.7 319.283 162.873C319.283 155.095 321.055 148.08 324.6 141.828C328.193 135.576 333.092 130.702 339.294 127.207C345.497 123.663 352.34 121.891 359.822 121.891C367.994 121.891 375.108 123.712 381.163 127.355C387.267 130.948 392.066 136.117 395.562 142.862C399.057 149.557 400.952 157.482 401.247 166.639ZM360.118 134.591C354.358 134.591 349.312 136.536 344.98 140.425C340.648 144.265 337.867 149.36 336.636 155.71H385.224C383.796 149.36 380.769 144.265 376.141 140.425C371.514 136.536 366.173 134.591 360.118 134.591Z" fill="#221D23"/>
</svg>
